<svg xmlns="http://www.w3.org/2000/svg" viewBox="0 0 711 750" width="711" height="750"><style>tspan { white-space:pre }
		.svg-pans-shp0 { fill: #f4edec }
		.svg-pans-shp1 { fill: #cdb4b4 }
		.svg-pans-shp2 { fill: #ffc4c0 }
		.svg-pans-shp3 { fill: #ff9595 }
		.svg-pans-shp4 { fill: #771212 }
		.svg-pans-shp5 { fill: #ac86a9 }
		.svg-pans-shp6 { fill: #c25757 }
		.svg-pans-shp7 { fill: #b4a3aa }
		.svg-pans-shp8 { fill: none;stroke: #fffbfb;stroke-width: 5.105 }
		.svg-pans-shp9 { fill: #ea1d2c }
		.svg-pans-shp10 { opacity: 0.302;fill: #fff1ff }
		.svg-pans-shp11 { fill: #ffffff }
		.svg-pans-shp12 { fill: #e4002b }
		.svg-pans-shp13 { fill: #fffbfb }</style><path class="svg-pans-shp0" d="M83.44 614.87C184.7 738 254.95 749.33 386.27 749.99C577.7 750.92 680.91 670.08 695.54 494.5C756.32 155.7 609.5 10.01 609.5 10.01C533.35 -60.35 531.21 267.13 164.28 155.7C12.4 109.58 -71.8 426.32 83.44 614.87Z"></path><path class="svg-pans-shp1" d="M391.21 701.69C478.42 693.31 506.34 677.71 505.41 656.41C504.48 635.11 449.84 626.32 373.88 629.61C297.93 632.9 245.03 650 245.96 671.3C246.88 692.6 293.23 711.12 391.21 701.69Z"></path><path class="z-1 svg-pans-shp2" d="M407.14 156.83C413.45 155.81 419.6 155.03 425.68 153.34C425 154.61 424.16 155.87 423.82 156.71C422.52 159.59 421.4 162.48 420.27 165.42C418.13 170.95 416.16 176.72 413.23 181.89C411.54 184.89 414.3 187.59 417.06 187.17C427.54 185.61 437.51 181.71 447.76 179.06C451.99 177.98 450.18 171.01 445.96 172.09C438.01 174.13 430.3 176.96 422.3 178.82C424.05 174.74 425.51 170.53 427.09 166.5C428.27 163.5 429.45 160.49 430.92 157.67C432.61 154.31 434.69 151.12 433.45 147.16C432.89 145.41 431.09 143.91 429.28 144.63C421.45 147.63 413.51 148.54 405.34 149.86C401.06 150.58 402.86 157.49 407.14 156.83Z"></path><path class="z-2 svg-pans-shp3" d="M453.57 303.85C438.8 307.06 424.03 310.22 409.25 313.43C421.5 297.53 433.92 281.69 447.1 266.56C449.63 263.63 447.92 259.31 443.98 259.08C428.44 258.02 413.55 262.99 398.48 265.92C392.89 267.02 395.24 275.44 400.84 274.39C412.02 272.23 423.03 268.84 434.39 267.96C420.67 284.27 407.66 301.16 394.71 318.05C392.18 321.32 396.36 325.24 399.72 324.48C418.49 320.44 437.21 316.35 455.99 312.32C461.46 311.09 459.11 302.62 453.57 303.85Z"></path><path class="z-3 svg-pans-shp3" d="M522.57 205.58C522.1 201.66 519.57 199.97 515.86 199.27C511.56 198.51 507.21 197.98 502.85 197.51C494.38 196.58 485.84 196.17 477.31 196.23C471.66 196.29 471.6 205.05 477.31 204.99C483.96 204.94 490.55 205.17 497.2 205.75C500.44 206.05 503.62 206.34 506.8 206.75C506.92 206.75 507.03 206.81 507.15 206.81C499.91 211.31 493.08 216.45 486.25 221.42C481.78 224.69 477.31 227.96 472.83 231.24C471.3 232.35 469.83 233.4 468.3 234.45C467.83 234.74 467.36 235.03 466.89 235.39C466.83 235.44 466.71 235.5 466.65 235.56C462.59 236.73 462.71 242.87 466.83 243.98C481.49 247.84 495.97 253.97 509.39 260.99C514.39 263.62 518.86 256.02 513.86 253.39C502.62 247.48 490.55 242.17 478.25 238.19C482.25 235.33 486.2 232.41 490.14 229.48C499.85 222.41 509.62 214.93 520.39 209.44C521.63 208.74 522.75 206.98 522.57 205.58Z"></path><path class="white-inside svg-pans-shp4" d="M373.24 582.97C432.65 580.39 480.19 564.1 479.42 546.58C478.66 529.06 429.89 516.94 370.48 519.52C311.07 522.09 263.54 538.38 264.3 555.9C265.06 573.42 313.84 585.54 373.24 582.97Z"></path><g class="pink-purple"><g class="purple-inside"><path class="svg-pans-shp5" d="M469.69 478.67C483.61 512.03 447.58 565.1 389.45 580.26C331.32 595.42 259.71 578.31 258.82 533.69C258.6 520.69 300.38 520.04 358.51 504.88C416.86 489.72 464.6 466.75 469.69 478.67Z"></path><path class="svg-pans-shp4" d="M370.46 528.7C427.92 513.45 471.79 490.92 468.45 478.38C465.11 465.85 415.82 468.05 358.36 483.3C300.9 498.55 257.03 521.07 260.37 533.61C263.71 546.15 313 543.95 370.46 528.7Z"></path></g><g class="purple-pan"><g class="pink-pan"><path class="svg-pans-shp2" d="M436.12 459.53C440.92 474.19 447.67 508.26 379.01 543.4C344.78 560.87 297.48 554.61 271.32 541.89C268.05 540.38 265.65 537.58 264.13 534.56C240.58 484.11 225.54 439.27 222.93 431.72C218.13 417.06 356.12 392.27 405.6 376.31C427.18 430 431.11 444.66 436.12 459.53Z"></path><path class="svg-pans-shp6" d="M251.97 479.8C248.72 471.77 241.77 466.9 232.87 466.27C228.1 465.85 222.02 469.23 217.9 468.17C209.65 466.27 227.66 455.7 230.49 453.8C229.62 449.57 229.84 447.88 225.93 441.75C217.03 447.88 195.76 461.83 205.31 474.51C208.78 479.16 214.86 480.22 220.5 479.59C227.01 478.74 237.43 474.51 240.69 483.18C243.51 489.73 254.79 486.56 251.97 479.8Z"></path><path class="svg-pans-shp6" d="M418.4 434.33C415.32 425.96 416.96 417.38 422.51 410.78C425.59 407.26 431.95 405.72 434.21 401.98C438.73 394.71 417.87 400.18 414.58 400.62C411.21 392.74 411.21 392.74 408.96 388.23C419.23 386.91 445.31 381.95 447.16 398.23C447.77 404.18 444.28 409.24 439.97 412.54C434.83 416.5 424.97 420.46 428.26 429.26C430.93 436.09 421.07 441.59 418.4 434.33Z"></path><path class="svg-pans-shp4" d="M321.61 429.33C370.92 413.25 410 390.42 405.14 375.58C400.28 360.74 353.32 359.5 304.01 375.58C254.71 391.66 218.68 416.73 223.53 431.57C228.4 446.41 272.31 445.41 321.61 429.33Z"></path><g class="pink-pan-lip"><path class="svg-pans-shp7" d="M318.89 418.06C365.92 396.2 398.69 367.01 392.09 352.85C385.49 338.7 342.01 344.94 294.98 366.8C247.95 388.66 215.18 417.85 221.78 432.01C228.38 446.16 271.86 439.92 318.89 418.06Z"></path><path class="svg-pans-shp2" d="M318.6 415.51C365.63 393.65 398.4 364.46 391.8 350.3C385.19 336.15 341.71 342.39 294.69 364.25C247.66 386.11 214.88 415.3 221.49 429.46C228.09 443.61 271.57 437.37 318.6 415.51Z"></path><path class="svg-pans-shp8" d="M316.11 405.7C351.41 388.88 375.91 366.64 370.83 356.01C365.75 345.39 333.02 350.41 297.71 367.23C262.41 384.05 237.91 406.3 242.98 416.92C248.06 427.54 280.8 422.52 316.11 405.7Z"></path><path class="svg-pans-shp9" d="M308.74 384.03C311.59 382.54 313.66 380.07 314.26 376.75C315.67 368.11 316.42 359.4 316.98 350.44C317.06 347.74 315.44 346.2 313.06 345.48C303 343.23 294.57 344.54 286.25 350.83C281.35 354.56 277.8 360.26 281.9 365.68C286.36 371.82 292.5 377.02 298.39 382.42C300.99 385.19 305.19 385.66 308.74 384.03C308.52 384 308.52 384 308.74 384.03Z"></path></g><path class="svg-pans-shp4" d="M325.43 518.61C325 518.61 324.56 518.61 324.13 518.39C317.59 516.65 309.96 499.04 308.44 494.69C308 493.6 308.65 492.29 309.74 491.86C310.83 491.42 312.14 492.08 312.57 493.16C316.06 502.95 322.38 512.96 324.78 513.83C325.43 512.09 324.34 509.69 323.25 507.3L313.45 487.51C313.01 486.42 313.45 485.12 314.54 484.46C315.63 484.03 316.93 484.46 317.59 485.55L327.39 505.34C329.14 509.04 330.66 513.17 328.49 516.65C328.27 516.87 328.27 517.09 328.05 517.09C327.39 518.18 326.52 518.61 325.43 518.61Z"></path><path class="svg-pans-shp4" d="M337.86 504.91C337.42 504.91 336.98 504.91 336.33 504.69C332.19 503.39 328.48 495.77 324.78 487.51C324.34 486.42 323.91 485.33 323.47 484.68C323.04 483.59 323.47 482.29 324.56 481.64C325.65 481.2 326.96 481.64 327.61 482.72C328.05 483.59 328.48 484.46 328.92 485.77C334.15 497.95 336.76 500.56 337.86 500.56C342.21 497.95 339.6 490.77 336.33 483.59C335.89 482.51 336.33 481.2 337.42 480.77C338.51 480.33 339.82 480.77 340.25 481.85C342.87 487.51 348.32 499.47 340.03 504.47C339.38 504.69 338.73 504.91 337.86 504.91Z"></path><g class="pink-pan-mouth"><path class="svg-pans-shp4" d="M352.68 514.7C350.5 511.43 345.27 510.56 342.43 513.17C339.38 515.57 338.29 516.87 340.69 522.74C340.69 522.74 345.05 530.79 351.15 525.13C353.98 522.52 354.86 517.96 352.68 514.7Z"></path><path class="svg-pans-shp4" d="M353.98 514.04C350.5 509.69 344.61 509.26 340.47 512.74C337.2 515.78 337.2 520.13 339.38 523.83C341.34 527.09 345.05 529.49 348.75 528.18C354.64 526.22 357.03 518.83 353.98 514.04C352.89 512.52 350.5 513.83 351.37 515.57C353.55 519.04 351.59 524.92 347.44 525.79C345.27 526.22 343.09 524.26 342 522.52C340.91 520.57 340.04 517.52 341.78 515.78C344.39 512.96 348.97 512.3 351.37 515.57C352.68 516.87 355.07 515.35 353.98 514.04Z"></path></g><path class="svg-pans-shp10" d="M422.94 495.02C421.31 497.34 417.05 497.31 416.08 495C414.2 490.29 390.71 418.8 388.65 414.12C387.57 411.71 389.12 409.38 391.77 408.43C394.11 407.62 395.15 409.59 395.98 411.15C398.44 415.95 421.87 487.75 423.23 492.92C423.41 493.68 423.07 494.51 422.94 495.02Z"></path></g><path class="svg-pans-shp5" d="M469.37 479.86C472.69 492.28 428.27 514.55 370.16 529.54C311.83 544.53 261.89 546.67 258.58 534.25C259.46 578.58 330.83 595.28 389.16 580.29C447.27 565.3 483.51 512.84 469.37 479.86Z"></path><path class="svg-pans-shp11" d="M557.95 480.08L460.59 501.51C450.74 503.66 454.1 517.8 463.94 515.66L561.31 494.23C571.15 492.08 567.8 477.94 557.95 480.08Z"></path><path class="svg-pans-shp12" d="M602.56 468.8L497.2 491.32C485.56 493.78 490.83 515.9 502.69 513.44L608.05 490.91C619.68 488.25 614.2 466.34 602.56 468.8Z"></path><path class="svg-pans-shp4" d="M375.12 564.07C374.9 564.07 374.47 564.07 374.25 564.07C368.58 562.76 367.5 548.19 367.5 547.97C367.5 546.67 368.58 545.8 369.67 545.8C370.98 545.8 371.85 546.89 371.85 547.97C371.85 552.32 374.03 558.41 375.12 559.72C375.56 559.5 376.21 558.63 377.3 556.24C379.48 551.45 379.7 546.89 380.13 541.45L380.13 541.01C380.13 539.71 381.23 538.84 382.53 538.84C383.84 538.84 384.71 539.93 384.71 541.23L384.71 541.67C384.49 547.32 384.06 552.54 381.66 557.98C380.57 559.5 378.39 564.07 375.12 564.07Z"></path><path class="svg-pans-shp4" d="M394.74 560.37C393.65 560.37 392.56 560.15 391.69 559.5C388.63 557.76 388.2 553.63 388.2 552.32C387.76 547.32 388.2 542.53 389.51 537.75C389.72 536.66 391.03 535.79 392.12 536.23C393.21 536.45 394.08 537.75 393.65 538.84C392.56 543.19 392.12 547.54 392.56 552.1C392.77 554.06 393.21 555.37 393.87 555.8C394.74 556.24 396.04 555.8 396.92 555.15C399.1 553.41 400.19 550.8 401.49 547.54C401.93 546.45 403.24 545.8 404.33 546.23C405.42 546.67 406.07 547.97 405.63 549.06C404.33 552.32 402.8 556.24 399.53 558.63C398.22 559.72 396.48 560.37 394.74 560.37Z"></path><g class="purple-pan-mouth"><path class="svg-pans-shp4" d="M373.38 579.51C373.16 577.77 372.73 576.03 372.29 574.29C371.85 572.98 371.2 571.46 369.89 571.03C368.58 570.59 367.06 571.03 365.97 571.68C362.92 573.2 355.51 579.73 356.16 581.03C361.61 581.25 366.84 581.25 372.29 580.81C372.73 580.81 373.16 580.81 373.38 580.38C373.38 580.38 373.38 579.94 373.38 579.51Z"></path><path class="svg-pans-shp4" d="M374.69 579.07C374.25 576.25 373.81 571.68 370.98 569.94C368.58 568.63 365.75 569.72 363.79 571.24C361.61 572.77 359.43 574.51 357.47 576.46C356.38 577.55 354.42 579.29 354.64 581.03C354.64 581.9 355.29 582.34 355.94 582.34C360.96 582.55 365.75 582.55 370.76 582.34C372.94 582.12 374.9 582.12 374.69 579.51C374.69 577.77 371.85 577.77 371.85 579.51C371.85 579.94 357.47 579.73 355.94 579.73C356.38 580.16 356.82 580.6 357.25 581.03C357.03 579.51 361.83 576.25 362.92 575.38C363.79 574.72 365.31 573.2 366.4 572.98C367.71 573.2 369.02 573.42 370.33 573.64C370.55 574.29 370.76 574.94 370.98 575.59C371.42 577.12 371.63 578.64 371.85 580.16C372.29 581.68 374.9 580.81 374.69 579.07Z"></path></g></g></g><g class="white-pan"><path class="svg-pans-shp13" d="M480.85 545.14C481.51 562.45 433.73 578.67 374.1 581.26C314.26 583.86 265.38 571.75 264.5 554.45C261.65 600.95 264.94 630.14 264.29 647.66C262.97 678.81 324.78 690.27 374.1 686.16C433.73 681.19 481.73 668.43 480.85 644.2C480.63 634.69 482.82 574.78 480.85 545.14Z"></path><path class="svg-pans-shp4" d="M305.38 643.89C305.17 643.89 304.95 643.89 304.73 643.89C302.55 643.67 300.59 642.15 299.5 639.76C298.85 638.02 298.63 636.06 298.63 634.32C298.85 627.79 300.37 621.05 302.99 614.96C303.42 613.87 304.73 613.44 305.82 613.87C306.91 614.31 307.35 615.61 306.91 616.7C304.51 622.14 302.99 628.45 302.99 634.32C302.99 635.84 302.99 636.93 303.42 638.02C303.86 638.89 304.51 639.54 304.95 639.54C305.6 639.54 306.26 639.32 307.35 638.45C310.83 636.06 313.88 632.36 316.06 627.36C318.24 623.01 319.77 618.01 321.07 613.22C321.51 612.13 322.6 611.48 323.91 611.7C325 612.13 325.65 613.22 325.43 614.53C323.91 619.53 322.38 624.53 320.2 629.32C317.59 634.75 314.1 639.1 309.96 641.93C309.09 642.8 307.56 643.89 305.38 643.89Z"></path><path class="svg-pans-shp4" d="M334.37 654.54C333.06 654.54 331.32 654.11 329.79 652.37C326.09 648.89 319.11 637.8 334.37 608.87C335.02 607.78 336.33 607.35 337.42 608C338.51 608.65 338.95 609.96 338.29 611.05C324.13 638.01 330.45 647.15 332.63 649.33L332.84 649.54C333.28 650.2 333.93 650.41 334.59 650.2C335.89 649.98 340.91 647.37 348.75 625.84C349.19 624.75 350.5 624.1 351.59 624.53C352.68 624.97 353.33 626.27 352.89 627.36C346.57 644.54 340.91 653.46 335.46 654.54C335.24 654.54 334.81 654.54 334.37 654.54Z"></path><g class="white-pan-mouth"><path class="svg-pans-shp4" d="M296.01 651.07C294.7 650.2 292.74 650.2 291.22 650.85C289.69 651.5 288.38 652.8 287.51 654.11C286.64 655.2 285.99 656.5 285.99 657.81C285.99 658.46 286.21 659.11 286.42 659.55C286.42 660.42 286.64 661.29 287.3 661.94C289.04 663.68 291.87 662.81 293.83 661.5C295.58 660.2 297.32 658.68 297.76 656.5C298.41 654.76 297.76 652.15 296.01 651.07Z"></path><path class="svg-pans-shp4" d="M296.67 649.76C292.53 647.59 288.39 649.98 285.99 653.46C284.03 656.28 283.59 661.72 286.86 663.9C290.35 666.07 294.92 663.24 297.1 660.63C299.72 657.59 300.37 652.59 296.88 649.98C295.36 648.89 293.18 650.85 294.71 652.15C298.85 655.41 293.83 662.16 289.48 661.72C286.64 661.5 287.08 656.94 288.17 655.41C289.48 653.24 292.31 651.07 294.92 652.59C296.88 653.24 298.41 650.63 296.67 649.76Z"></path></g><path class="svg-pans-shp12" d="M530.07 569.72C526.15 559.06 511.99 562.76 503.7 564.94C495.2 567.33 487.14 571.03 479.95 575.81C479.95 577.77 479.73 581.47 479.95 584.08C484.96 580.38 490.85 576.9 496.51 574.51C500.65 572.77 504.79 571.46 508.94 570.59C511.11 570.16 514.16 569.07 516.56 569.29C520.92 569.72 524.84 573.85 522.45 578.2C518.31 585.82 509.15 590.38 501.52 593.86C492.15 598.21 482.56 602.13 472.98 605.39C468.83 606.91 470.58 613.22 474.72 611.91C488.23 607.13 502.4 602.13 514.6 594.52C522.45 589.73 534 580.16 530.07 569.72Z"></path><path class="svg-pans-shp12" d="M274.87 614.09C265.28 611.92 255.91 609.31 246.76 606.04C238.7 603.43 227.15 599.74 222.57 591.91C214.29 577.99 241.75 583.86 248.07 585.6C253.51 587.12 258.96 589.51 263.76 592.34L263.76 584.73C256.35 581.03 248.5 578.21 240.22 576.9C231.5 575.38 216.69 573.2 214.07 584.73C211.89 595.17 223.88 603.22 231.72 607.13C244.58 613.44 259.18 617.14 273.13 620.4C277.27 621.49 279.01 614.96 274.87 614.09Z"></path></g></svg>